<svg width="48" height="48" viewBox="0 0 48 48" fill="none" xmlns="http://www.w3.org/2000/svg">
<path d="M11.5 38C11.0667 38 10.7083 37.8583 10.425 37.575C10.1417 37.2917 10 36.9333 10 36.5C10 36.0667 10.1417 35.7083 10.425 35.425C10.7083 35.1417 11.0667 35 11.5 35H36.5C36.9333 35 37.2917 35.1417 37.575 35.425C37.8583 35.7083 38 36.0667 38 36.5C38 36.9333 37.8583 37.2917 37.575 37.575C37.2917 37.8583 36.9333 38 36.5 38H11.5ZM19.65 21.8H28.35L24.1 10.7H23.9L19.65 21.8ZM15.85 30C15.3167 30 14.9667 29.825 14.8 29.475C14.6333 29.125 14.6333 28.7 14.8 28.2L21.8 9.55C21.9667 9.11667 22.2583 8.75 22.675 8.45C23.0917 8.15 23.5333 8 24 8C24.4667 8 24.9083 8.15 25.325 8.45C25.7417 8.75 26.0333 9.11667 26.2 9.55L33.2 28.2C33.3667 28.7 33.3667 29.125 33.2 29.475C33.0333 29.825 32.6833 30 32.15 30C31.8833 30 31.6417 29.925 31.425 29.775C31.2083 29.625 31.0667 29.45 31 29.25L29.05 24.05H18.9L16.95 29.25C16.8833 29.45 16.7417 29.625 16.525 29.775C16.3083 29.925 16.0833 30 15.85 30Z" fill="#DC0A2D"/>
</svg>
